<svg width="47" height="52" viewBox="0 0 47 52" fill="none" xmlns="http://www.w3.org/2000/svg">
<path d="M19.6993 19.9248C12.3381 19.5698 7.2218 22.1935 4.3493 27.7973C0.0418043 36.2035 3.6018 49.9585 17.9743 49.9585C32.3493 49.9585 32.7643 36.0685 32.7643 34.6135V18.3435C35.8393 20.2898 38.4306 21.4623 40.5393 21.8598C42.6506 22.256 43.9906 22.4323 44.5643 22.3873V14.2923C42.6131 14.0573 40.9256 13.6085 39.5018 12.9473C37.3656 11.9548 33.1318 9.20102 33.1318 5.16477C33.1343 5.18477 33.1343 4.14352 33.1318 2.04102H24.2343C24.2081 21.811 24.2081 32.6685 24.2343 34.6135C24.2731 37.531 22.0093 41.6135 17.4218 41.6135C12.8318 41.6135 10.5681 37.5348 10.5681 34.9048C10.5681 33.2948 11.1218 30.961 13.4081 29.2323C14.7643 28.2073 16.6456 27.7973 19.6993 27.7973V19.9248Z" stroke="white" stroke-width="3.5" stroke-linejoin="round"/>
</svg>
