<svg width="46" height="46" viewBox="0 0 46 46" fill="none" xmlns="http://www.w3.org/2000/svg">
<path d="M35.5 0.5C38.0656 0.499998 40.5331 1.48609 42.392 3.25431C44.251 5.02253 45.3592 7.4376 45.4875 10L45.5 10.5V35.5C45.5 38.0656 44.5139 40.5331 42.7457 42.392C40.9775 44.251 38.5624 45.3592 36 45.4875L35.5 45.5H10.5C7.93439 45.5 5.46693 44.5139 3.60797 42.7457C1.74901 40.9775 0.640781 38.5624 0.5125 36L0.5 35.5V10.5C0.499998 7.93439 1.48609 5.46693 3.25431 3.60797C5.02253 1.74901 7.4376 0.640781 10 0.5125L10.5 0.5H35.5ZM35.5 5.5H10.5C9.23856 5.4996 8.02358 5.97602 7.09863 6.83374C6.17368 7.69147 5.60711 8.86711 5.5125 10.125L5.5 10.5V35.5C5.4996 36.7614 5.97602 37.9764 6.83374 38.9014C7.69147 39.8263 8.86711 40.3929 10.125 40.4875L10.5 40.5H35.5C36.7614 40.5004 37.9764 40.024 38.9014 39.1663C39.8263 38.3085 40.3929 37.1329 40.4875 35.875L40.5 35.5V10.5C40.5004 9.23856 40.024 8.02358 39.1663 7.09863C38.3085 6.17368 37.1329 5.60711 35.875 5.5125L35.5 5.5ZM31.6325 16.0625L32.17 15.3625C32.538 14.8108 33.11 14.428 33.7603 14.2981C34.4106 14.1682 35.0858 14.302 35.6375 14.67C36.1892 15.038 36.572 15.61 36.7019 16.2603C36.8318 16.9106 36.698 17.5858 36.33 18.1375C35.272 19.6723 34.0424 21.0814 32.665 22.3375C32.3083 22.6671 31.9414 22.9856 31.565 23.2925C34.31 24.7525 36.54 26.9925 37.735 29.3825C37.8939 29.6772 37.992 30.0008 38.0235 30.3341C38.055 30.6674 38.0191 31.0037 37.9182 31.3229C37.8172 31.6422 37.6532 31.9378 37.4358 32.1925C37.2184 32.4471 36.952 32.6554 36.6526 32.8052C36.3531 32.9549 36.0266 33.043 35.6925 33.0641C35.3584 33.0853 35.0234 33.0391 34.7074 32.9283C34.3915 32.8175 34.101 32.6444 33.8532 32.4193C33.6054 32.1941 33.4054 31.9214 33.265 31.6175C32.1225 29.3375 29.165 27.1075 26.025 26.65L25.5 26.5925V30.5C25.5 31.163 25.2366 31.7989 24.7678 32.2678C24.2989 32.7366 23.663 33 23 33C14.275 33 8 25.83 8 16.75C8 16.087 8.26339 15.4511 8.73223 14.9822C9.20107 14.5134 9.83696 14.25 10.5 14.25C11.163 14.25 11.7989 14.5134 12.2678 14.9822C12.7366 15.4511 13 16.087 13 16.75C13 21.435 15.445 25.9975 19.9875 27.525L20.5 27.6825V16.75C20.5 15.3275 21.645 14.3275 23 14.25C23.5634 14.2495 24.1105 14.4394 24.5524 14.7888C24.9944 15.1382 25.3054 15.6267 25.435 16.175L25.485 16.4575L25.5025 21.2075C26.7425 20.6925 28.015 19.825 29.2725 18.6625C30.1425 17.8625 30.9075 16.9825 31.6325 16.0625Z" fill="white"/>
</svg>
