<svg width="60" height="60" viewBox="0 0 60 60" fill="none" xmlns="http://www.w3.org/2000/svg">
<g clip-path="url(#clip0_6502_1829)">
<path d="M24.75 0H21.375L19.125 8.625L16.875 0H13.125C13.875 2.25 14.625 4.125 15.375 6.375C16.5 9.375 17.25 12 17.25 13.5V22.5H20.625V13.5L24.75 0ZM33.75 16.875V11.25C33.75 9.375 33.375 8.25 32.625 7.125C31.875 6 30.75 5.625 29.25 5.625C27.75 5.625 26.625 6.375 25.875 7.5C25.125 8.25 24.75 9.375 24.75 11.25V17.25C24.75 19.125 25.125 20.25 25.875 21C26.625 22.125 27.75 22.5 29.25 22.5C30.75 22.5 31.875 21.75 32.625 20.625C33.375 20.25 33.75 18.75 33.75 16.875ZM30.75 17.625C30.75 19.125 30.375 19.875 29.25 19.875C28.125 19.875 27.75 19.125 27.75 17.625V10.5C27.75 9 28.125 8.25 29.25 8.25C30.375 8.25 30.75 9 30.75 10.5V17.625ZM45 22.5V5.625H42V18.375C41.25 19.5 40.875 19.875 40.125 19.875C39.75 19.875 39.375 19.5 39.375 19.125V5.625H36.375V18.75C36.375 19.875 36.375 20.625 36.75 21.375C36.75 22.125 37.5 22.5 38.625 22.5C39.75 22.5 40.875 21.75 42 20.625V22.5H45ZM46.5 39.375C45.375 39.375 45 40.125 45 41.625V43.125H48V41.625C48 40.125 47.625 39.375 46.5 39.375ZM35.625 39.375C35.25 39.375 34.5 39.75 34.125 40.125V50.25C34.5 50.625 35.25 51 35.625 51C36.375 51 36.75 50.25 36.75 48.75V41.625C36.75 40.125 36.375 39.375 35.625 39.375Z" fill="white"/>
<path d="M54 31.125C53.25 28.5 51 26.25 48.75 26.25C42.75 25.5 36.375 25.5 30 25.5C23.625 25.5 17.625 25.5 11.25 26.25C9 26.25 6.75 28.5 6 31.125C5.25 34.875 5.25 39 5.25 42.75C5.25 46.5 5.25 50.625 6 54.375C6.75 57 8.625 58.875 11.25 59.25C17.625 60 23.625 60 30 60C36.375 60 42.375 60 48.75 59.25C51.375 58.875 53.625 57 54 54.375C54.75 50.625 54.75 46.5 54.75 42.75C54.75 39 54.75 34.875 54 31.125ZM19.5 34.5H15.75V53.625H12.375V34.5H9V31.125H19.5V34.5ZM28.5 53.625H25.5V51.75C24.375 53.25 23.25 53.625 22.125 53.625C21 53.625 20.625 53.25 20.25 52.5C20.25 52.125 19.875 51.375 19.875 49.875V36.75H22.875V49.875C22.875 50.25 23.25 50.625 23.625 50.625C24.375 50.625 24.75 50.25 25.5 49.125V36.75H28.5V53.625ZM39.75 48.375C39.75 49.875 39.75 51 39.375 51.75C39 52.875 38.25 53.625 37.125 53.625C36 53.625 34.875 52.875 34.125 51.75V53.25H31.125V31.125H34.125V38.25C35.25 37.125 36 36.375 37.125 36.375C38.25 36.375 39 37.125 39.375 38.25C39.75 39 39.75 40.125 39.75 41.625V48.375ZM51 45.75H45V48.75C45 50.25 45.375 51 46.5 51C47.25 51 47.625 50.625 48 49.875V48H51V50.25C51 51 50.625 51.375 50.25 52.125C49.5 53.25 48.375 54 46.5 54C45 54 43.875 53.25 42.75 52.125C42 51.375 41.625 49.875 41.625 48.375V42.75C41.625 40.875 42 39.75 42.375 39C43.125 37.875 44.25 37.125 46.125 37.125C47.625 37.125 48.75 37.875 49.5 39C50.25 39.75 50.25 41.25 50.25 42.75V45.75H51Z" fill="white"/>
</g>
<defs>
<clipPath id="clip0_6502_1829">
<rect width="60" height="60" fill="white"/>
</clipPath>
</defs>
</svg>
