<svg width="123" height="20" viewBox="0 0 123 20" fill="none" xmlns="http://www.w3.org/2000/svg">
<g filter="url(#filter0_i_7142_2956)">
<path d="M6.94958 11.4759L6.86652 11.4483L6.72808 11.4207L6.70364 11.4143C6.06115 11.2474 4.88669 10.9423 3.7932 10.2069C2.24269 9.18621 1.38438 7.69655 1.30132 5.84828C1.21825 4.30345 1.71663 2.95172 2.71338 1.90345C4.15314 0.413793 6.2297 0 7.22646 0C10.0456 0 11.6232 1.01707 13.0333 1.92618L13.0408 1.93103L13.6777 2.34483L11.6565 5.62759L10.9643 5.18621L10.9352 5.16751C9.70574 4.37805 8.90221 3.86207 7.22646 3.86207C6.97727 3.86207 6.0082 4.05517 5.50983 4.57931C5.3437 4.74483 5.14989 5.04828 5.17758 5.68276C5.20526 6.67586 5.89745 7.22759 7.66946 7.66897C7.89095 7.72414 8.05708 7.77931 8.2232 7.83448C10.0783 8.46896 11.518 9.32414 12.5148 10.4C13.5115 11.5035 14.0376 12.8 14.0376 14.1793C14.0376 15.531 13.4562 16.9379 12.4871 18.0138C11.3519 19.2828 9.77371 20 8.0294 20C7.17108 20 6.0082 19.9448 4.62382 19.531C2.87951 18.9793 1.329 18.0138 0 16.6069L2.82413 13.9586C4.87301 16.1379 7.17108 16.1379 8.0294 16.1379C9.63527 16.1379 10.1613 14.6759 10.1613 14.1793C10.1613 13.131 8.97077 12.1655 6.94958 11.4759Z" fill="white"/>
<path d="M26.3497 0.275862H39.2798V4.13793H30.226V7.69655H37.7016V11.5586H30.226V19.6138H26.3497V0.275862Z" fill="white"/>
<path d="M52.0234 0.275862H64.9535V4.13793H52.0234V0.275862Z" fill="white"/>
<path d="M62.7385 11.5862H52.0234V7.72414H62.7385V11.5862Z" fill="white"/>
<path d="M64.8705 19.6138H52.0234V15.7517H64.8705V19.6138Z" fill="white"/>
<path d="M87.3439 6.06897C87.3439 4.9931 86.4856 4.11034 85.4058 4.11034H81.6956V19.5862H77.8194V0.248276H85.4058C88.6175 0.248276 91.2201 2.86897 91.2201 6.06897C91.2201 8.41379 89.8358 10.4276 87.8146 11.3379L91.6631 19.6138H87.5377L83.9106 11.8621V8H85.4058C86.4856 8 87.3439 7.14483 87.3439 6.06897Z" fill="white"/>
<path d="M102.717 19.6138L112.601 0.275862H113.736L122.901 19.6138H118.609L117.319 16.8747H112.545V13.5762H115.764L113.072 7.86207L107.063 19.6138H102.717Z" fill="white"/>
</g>
<defs>
<filter id="filter0_i_7142_2956" x="0" y="0" width="123.618" height="22.5671" filterUnits="userSpaceOnUse" color-interpolation-filters="sRGB">
<feFlood flood-opacity="0" result="BackgroundImageFix"/>
<feBlend mode="normal" in="SourceGraphic" in2="BackgroundImageFix" result="shape"/>
<feColorMatrix in="SourceAlpha" type="matrix" values="0 0 0 0 0 0 0 0 0 0 0 0 0 0 0 0 0 0 127 0" result="hardAlpha"/>
<feOffset dx="0.715292" dy="2.86117"/>
<feGaussianBlur stdDeviation="1.28355"/>
<feComposite in2="hardAlpha" operator="arithmetic" k2="-1" k3="1"/>
<feColorMatrix type="matrix" values="0 0 0 0 0 0 0 0 0 0 0 0 0 0 0 0 0 0 0.5 0"/>
<feBlend mode="normal" in2="shape" result="effect1_innerShadow_7142_2956"/>
</filter>
</defs>
</svg>
