<svg width="28" height="30" viewBox="0 0 28 30" fill="none" xmlns="http://www.w3.org/2000/svg">
<path d="M0.703903 30C0.234612 29.7657 0 29.1798 0 28.5938C0 28.4766 0 28.2423 0 28.1251C0 19.4536 0 10.782 0 2.22765C0 1.75891 0.117306 1.40741 0.234612 0.938672C0.351986 0.704268 0.586597 0.469932 0.821277 0.235596C5.86604 5.27443 10.7935 10.3133 15.7209 15.3522C10.6762 20.0394 5.74873 24.9612 0.703903 30Z" fill="url(#paint0_linear_6755_1908)"/>
<path d="M20.65 10.1949C19.2421 11.6011 17.7169 13.0073 16.3091 14.5307C11.6163 9.72616 6.80612 4.92167 2.11328 0.117168C2.11328 0.117168 2.11328 0 2.23059 0C8.3313 3.39828 14.4319 6.79662 20.65 10.1949Z" fill="url(#paint1_linear_6755_1908)"/>
<path d="M2.11328 29.9984C6.80612 25.3111 11.6163 20.6238 16.3091 15.9365C17.5996 17.2254 19.0075 18.5145 20.5327 19.9206C14.432 23.319 8.3313 26.7173 2.23059 29.9984H2.11328Z" fill="url(#paint2_linear_6755_1908)"/>
<path d="M21.3488 19.453C19.8236 18.0468 18.4158 16.6406 16.8906 15.2345C18.4158 13.7111 19.941 12.1877 21.4661 10.6643C21.9354 10.8986 22.4047 11.133 22.874 11.4846C24.0472 12.1877 25.3377 12.7736 26.5109 13.4767C26.8629 13.5938 27.0975 13.8282 27.3321 14.1798C27.8014 14.7657 27.8014 15.3516 27.3321 15.9375C27.0975 16.1719 26.8629 16.4063 26.5109 16.5235C24.8684 17.5781 23.1086 18.5156 21.3488 19.453Z" fill="url(#paint3_linear_6755_1908)"/>
<defs>
<linearGradient id="paint0_linear_6755_1908" x1="3.66822" y1="2.71596" x2="20.7301" y2="14.2309" gradientUnits="userSpaceOnUse">
<stop stop-color="#FF00F5"/>
<stop offset="1" stop-color="#00F0FF"/>
</linearGradient>
<linearGradient id="paint1_linear_6755_1908" x1="6.43851" y1="1.21089" x2="14.4452" y2="14.2622" gradientUnits="userSpaceOnUse">
<stop stop-color="#FF00F5"/>
<stop offset="1" stop-color="#00F0FF"/>
</linearGradient>
<linearGradient id="paint2_linear_6755_1908" x1="6.41114" y1="17.1083" x2="14.0652" y2="29.9191" gradientUnits="userSpaceOnUse">
<stop stop-color="#FF00F5"/>
<stop offset="1" stop-color="#00F0FF"/>
</linearGradient>
<linearGradient id="paint3_linear_6755_1908" x1="19.4091" y1="11.3967" x2="24.3331" y2="19.1237" gradientUnits="userSpaceOnUse">
<stop stop-color="#FF00F5"/>
<stop offset="1" stop-color="#00F0FF"/>
</linearGradient>
</defs>
</svg>
