<svg width="69" height="76" viewBox="0 0 69 76" fill="none" xmlns="http://www.w3.org/2000/svg">
<g filter="url(#filter0_dd_6546_1746)">
<path d="M20.4805 46.5V30.5H26.4805C27.7096 30.5 28.7409 30.7135 29.5742 31.1406C30.4128 31.5677 31.0456 32.1667 31.4727 32.9375C31.9049 33.7031 32.1211 34.5964 32.1211 35.6172C32.1211 36.6432 31.9023 37.5339 31.4648 38.2891C31.0326 39.0391 30.3945 39.6198 29.5508 40.0312C28.707 40.4375 27.6706 40.6406 26.4414 40.6406H22.168V38.2344H26.0508C26.7695 38.2344 27.3581 38.1354 27.8164 37.9375C28.2747 37.7344 28.6133 37.4401 28.832 37.0547C29.056 36.6641 29.168 36.1849 29.168 35.6172C29.168 35.0495 29.056 34.5651 28.832 34.1641C28.6081 33.7578 28.2669 33.4505 27.8086 33.2422C27.3503 33.0286 26.7591 32.9219 26.0352 32.9219H23.3789V46.5H20.4805ZM28.7461 39.25L32.707 46.5H29.4727L25.582 39.25H28.7461ZM44.875 30.5H47.7734V40.9531C47.7734 42.099 47.5026 43.1068 46.9609 43.9766C46.4245 44.8464 45.6693 45.526 44.6953 46.0156C43.7214 46.5 42.5833 46.7422 41.2813 46.7422C39.974 46.7422 38.8333 46.5 37.8594 46.0156C36.8854 45.526 36.1302 44.8464 35.5938 43.9766C35.0573 43.1068 34.7891 42.099 34.7891 40.9531V30.5H37.6875V40.7109C37.6875 41.3776 37.8333 41.9714 38.125 42.4922C38.4219 43.013 38.8385 43.4219 39.375 43.7188C39.9115 44.0104 40.5469 44.1562 41.2813 44.1562C42.0156 44.1562 42.651 44.0104 43.1875 43.7188C43.7292 43.4219 44.1458 43.013 44.4375 42.4922C44.7292 41.9714 44.875 41.3776 44.875 40.7109V30.5Z" fill="white"/>
<rect x="5.90234" y="9.5" width="57" height="57" rx="28.5" stroke="url(#paint0_linear_6546_1746)" stroke-width="3" shape-rendering="crispEdges"/>
</g>
<defs>
<filter id="filter0_dd_6546_1746" x="0.402344" y="0" width="68" height="76" filterUnits="userSpaceOnUse" color-interpolation-filters="sRGB">
<feFlood flood-opacity="0" result="BackgroundImageFix"/>
<feColorMatrix in="SourceAlpha" type="matrix" values="0 0 0 0 0 0 0 0 0 0 0 0 0 0 0 0 0 0 127 0" result="hardAlpha"/>
<feOffset dy="4"/>
<feGaussianBlur stdDeviation="2"/>
<feComposite in2="hardAlpha" operator="out"/>
<feColorMatrix type="matrix" values="0 0 0 0 0.133333 0 0 0 0 0.854902 0 0 0 0 0.898039 0 0 0 0.25 0"/>
<feBlend mode="normal" in2="BackgroundImageFix" result="effect1_dropShadow_6546_1746"/>
<feColorMatrix in="SourceAlpha" type="matrix" values="0 0 0 0 0 0 0 0 0 0 0 0 0 0 0 0 0 0 127 0" result="hardAlpha"/>
<feOffset dy="-4"/>
<feGaussianBlur stdDeviation="2"/>
<feComposite in2="hardAlpha" operator="out"/>
<feColorMatrix type="matrix" values="0 0 0 0 1 0 0 0 0 0 0 0 0 0 0.96 0 0 0 0.25 0"/>
<feBlend mode="normal" in2="effect1_dropShadow_6546_1746" result="effect2_dropShadow_6546_1746"/>
<feBlend mode="normal" in="SourceGraphic" in2="effect2_dropShadow_6546_1746" result="shape"/>
</filter>
<linearGradient id="paint0_linear_6546_1746" x1="18.4023" y1="13" x2="54.4023" y2="59" gradientUnits="userSpaceOnUse">
<stop stop-color="#FF00F5"/>
<stop offset="1" stop-color="#00F0FF"/>
</linearGradient>
</defs>
</svg>
