<svg width="29" height="31" viewBox="0 0 29 31" fill="none" xmlns="http://www.w3.org/2000/svg">
<path d="M1.36015 30.7143C0.890862 30.48 0.65625 29.894 0.65625 29.3081C0.65625 29.1909 0.65625 28.9566 0.65625 28.8394C0.65625 20.1679 0.65625 11.4963 0.65625 2.94195C0.65625 2.47321 0.773556 2.12171 0.890862 1.65297C1.00824 1.41856 1.24285 1.18423 1.47753 0.94989C6.52229 5.98872 11.4497 11.0276 16.3772 16.0665C11.3324 20.7537 6.40498 25.6755 1.36015 30.7143Z" fill="url(#paint0_linear_6604_2283)"/>
<path d="M21.3062 10.9092C19.8983 12.3154 18.3732 13.7216 16.9654 15.245C12.2725 10.4405 7.46237 5.63596 2.76953 0.831463C2.76953 0.831463 2.76953 0.714294 2.88684 0.714294C8.98755 4.11257 15.0882 7.51092 21.3062 10.9092Z" fill="url(#paint1_linear_6604_2283)"/>
<path d="M2.76953 30.7127C7.46237 26.0253 12.2725 21.3381 16.9654 16.6508C18.2559 17.9397 19.6637 19.2288 21.1889 20.6349C15.0882 24.0333 8.98755 27.4316 2.88684 30.7127H2.76953Z" fill="url(#paint2_linear_6604_2283)"/>
<path d="M22.005 20.1673C20.4799 18.7611 19.0721 17.3549 17.5469 15.9488C19.0721 14.4254 20.5972 12.902 22.1223 11.3786C22.5916 11.6129 23.0609 11.8473 23.5302 12.1988C24.7034 12.902 25.994 13.4879 27.1672 14.191C27.5192 14.3081 27.7538 14.5425 27.9884 14.894C28.4577 15.48 28.4577 16.0659 27.9884 16.6518C27.7538 16.8862 27.5192 17.1206 27.1672 17.2377C25.5247 18.2924 23.7649 19.2299 22.005 20.1673Z" fill="url(#paint3_linear_6604_2283)"/>
<defs>
<linearGradient id="paint0_linear_6604_2283" x1="4.32447" y1="3.43026" x2="21.3863" y2="14.9452" gradientUnits="userSpaceOnUse">
<stop stop-color="#FF00F5"/>
<stop offset="1" stop-color="#00F0FF"/>
</linearGradient>
<linearGradient id="paint1_linear_6604_2283" x1="7.09476" y1="1.92518" x2="15.1015" y2="14.9765" gradientUnits="userSpaceOnUse">
<stop stop-color="#FF00F5"/>
<stop offset="1" stop-color="#00F0FF"/>
</linearGradient>
<linearGradient id="paint2_linear_6604_2283" x1="7.06739" y1="17.8226" x2="14.7214" y2="30.6334" gradientUnits="userSpaceOnUse">
<stop stop-color="#FF00F5"/>
<stop offset="1" stop-color="#00F0FF"/>
</linearGradient>
<linearGradient id="paint3_linear_6604_2283" x1="20.0654" y1="12.111" x2="24.9894" y2="19.838" gradientUnits="userSpaceOnUse">
<stop stop-color="#FF00F5"/>
<stop offset="1" stop-color="#00F0FF"/>
</linearGradient>
</defs>
</svg>
