<svg width="30.71" height="30.71" viewBox="0 0 41 40" fill="none" xmlns="http://www.w3.org/2000/svg">
<g filter="url(#filter0_dd_6463_27826)">
<path fill-rule="evenodd" clip-rule="evenodd" d="M20.4997 5.71429C12.4127 5.71429 5.85686 12.2701 5.85686 20.3571C5.85686 28.4442 12.4127 35 20.4997 35C28.5867 35 35.1426 28.4442 35.1426 20.3571C35.1426 12.2701 28.5867 5.71429 20.4997 5.71429ZM5.14258 20.3571C5.14258 11.8756 12.0182 5 20.4997 5C28.9812 5 35.8569 11.8756 35.8569 20.3571C35.8569 28.8387 28.9812 35.7143 20.4997 35.7143C12.0182 35.7143 5.14258 28.8387 5.14258 20.3571Z" fill="url(#paint0_linear_6463_27826)"/>
<path fill-rule="evenodd" clip-rule="evenodd" d="M20.7896 10.9561C20.4 10.9561 20.0168 11.0546 19.6756 11.2425C19.3344 11.4304 19.0462 11.7015 18.8379 12.0307C18.6296 12.3598 18.5079 12.7363 18.4842 13.1251C18.4604 13.5139 18.5354 13.9024 18.7022 14.2545C18.7546 14.3651 18.7466 14.4949 18.6812 14.5983C18.6157 14.7018 18.5018 14.7645 18.3794 14.7645L13.9319 14.7644C13.8788 14.7644 13.8261 14.7749 13.777 14.7953C13.7279 14.8156 13.6833 14.8454 13.6457 14.883C13.6081 14.9206 13.5783 14.9652 13.5579 15.0144C13.5376 15.0635 13.5271 15.1161 13.5271 15.1693L13.5272 19.2357C13.5272 19.3582 13.4645 19.4721 13.361 19.5375C13.2576 19.603 13.1278 19.6109 13.0172 19.5585C12.6651 19.3918 12.2766 19.3168 11.8878 19.3405C11.499 19.3642 11.1225 19.4859 10.7933 19.6942C10.4642 19.9025 10.193 20.1907 10.0052 20.532C9.81728 20.8732 9.71876 21.2564 9.71876 21.646C9.71876 22.0355 9.81728 22.4187 10.0052 22.7599C10.193 23.1012 10.4642 23.3894 10.7933 23.5977C11.1225 23.806 11.499 23.9277 11.8878 23.9514C12.2766 23.9751 12.6651 23.9001 13.0172 23.7334C13.1278 23.681 13.2576 23.6889 13.361 23.7544C13.4645 23.8198 13.5272 23.9337 13.5272 24.0562L13.5271 28.1226C13.5271 28.1758 13.5376 28.2284 13.5579 28.2775C13.5783 28.3267 13.6081 28.3713 13.6457 28.4089C13.6833 28.4465 13.7279 28.4763 13.777 28.4966C13.8261 28.517 13.8788 28.5275 13.9319 28.5275L27.6472 28.5274C27.7546 28.5274 27.8576 28.4848 27.9335 28.4089C28.0094 28.333 28.052 28.23 28.052 28.1226L28.0521 24.5665C27.7378 24.6509 27.4107 24.6843 27.0835 24.6643C26.5744 24.6333 26.0815 24.474 25.6506 24.2012C25.2196 23.9285 24.8646 23.5512 24.6187 23.1044C24.3727 22.6577 24.2437 22.156 24.2437 21.6459C24.2437 21.1359 24.3727 20.6342 24.6187 20.1875C24.8646 19.7407 25.2196 19.3634 25.6506 19.0907C26.0815 18.8179 26.5744 18.6586 27.0835 18.6276C27.4107 18.6076 27.7378 18.641 28.0521 18.7254L28.052 15.1693C28.052 15.0619 28.0094 14.9589 27.9335 14.883C27.8576 14.8071 27.7546 14.7644 27.6472 14.7644L23.1998 14.7645C23.0774 14.7645 22.9635 14.7018 22.898 14.5983C22.8325 14.4949 22.8246 14.3651 22.877 14.2545C23.0438 13.9024 23.1187 13.5139 23.095 13.1251C23.0713 12.7363 22.9496 12.3598 22.7413 12.0307C22.533 11.7015 22.2448 11.4304 21.9036 11.2425C21.5623 11.0546 21.1791 10.9561 20.7896 10.9561ZM19.3311 10.6168C19.7779 10.3708 20.2796 10.2418 20.7896 10.2418C21.2996 10.2418 21.8013 10.3708 22.2481 10.6168C22.6948 10.8628 23.0721 11.2177 23.3449 11.6487C23.6176 12.0796 23.7769 12.5726 23.808 13.0816C23.8279 13.4088 23.7945 13.7359 23.7101 14.0502L27.6472 14.0502C27.944 14.0502 28.2287 14.1681 28.4385 14.3779C28.6484 14.5878 28.7663 14.8724 28.7663 15.1693L28.7664 19.2357C28.7664 19.3582 28.7037 19.4721 28.6002 19.5375C28.4968 19.603 28.367 19.6109 28.2564 19.5585C27.9043 19.3918 27.5158 19.3168 27.127 19.3405C26.7382 19.3642 26.3617 19.4859 26.0325 19.6942C25.7034 19.9025 25.4322 20.1907 25.2444 20.532C25.0565 20.8732 24.958 21.2564 24.958 21.6459C24.958 22.0355 25.0565 22.4187 25.2444 22.7599C25.4322 23.1012 25.7034 23.3894 26.0325 23.5977C26.3617 23.806 26.7382 23.9277 27.127 23.9514C27.5158 23.9751 27.9043 23.9001 28.2564 23.7334C28.367 23.681 28.4968 23.6889 28.6002 23.7544C28.7037 23.8198 28.7664 23.9337 28.7664 24.0562L28.7663 28.1226C28.7663 28.4194 28.6484 28.7041 28.4386 28.914C28.2287 29.1238 27.944 29.2417 27.6472 29.2417L13.9319 29.2417C13.785 29.2417 13.6394 29.2128 13.5037 29.1565C13.3679 29.1003 13.2445 29.0179 13.1406 28.914C13.0367 28.81 12.9543 28.6867 12.898 28.5509C12.8418 28.4151 12.8128 28.2696 12.8128 28.1226L12.8129 24.5665C12.4986 24.6509 12.1715 24.6843 11.8443 24.6643C11.3352 24.6333 10.8423 24.474 10.4113 24.2012C9.98039 23.9285 9.62541 23.5512 9.37944 23.1044C9.13346 22.6577 9.00448 22.156 9.00448 21.646C9.00448 21.1359 9.13346 20.6342 9.37944 20.1875C9.62541 19.7407 9.98039 19.3634 10.4113 19.0907C10.8423 18.8179 11.3352 18.6586 11.8443 18.6276C12.1715 18.6076 12.4986 18.641 12.8129 18.7254L12.8128 15.1693C12.8128 15.0223 12.8418 14.8768 12.898 14.741C12.9543 14.6052 13.0367 14.4819 13.1406 14.3779C13.2445 14.274 13.3679 14.1916 13.5037 14.1353C13.6395 14.0791 13.785 14.0502 13.932 14.0502L17.8691 14.0502C17.7847 13.7359 17.7512 13.4088 17.7712 13.0816C17.8023 12.5726 17.9616 12.0796 18.2343 11.6487C18.507 11.2177 18.8843 10.8628 19.3311 10.6168Z" fill="url(#paint1_linear_6463_27826)"/>
</g>
<defs>
<filter id="filter0_dd_6463_27826" x="0.856864" y="0.714286" width="39.2863" height="39.2857" filterUnits="userSpaceOnUse" color-interpolation-filters="sRGB">
<feFlood flood-opacity="0" result="BackgroundImageFix"/>
<feColorMatrix in="SourceAlpha" type="matrix" values="0 0 0 0 0 0 0 0 0 0 0 0 0 0 0 0 0 0 127 0" result="hardAlpha"/>
<feOffset dx="1.42857" dy="1.42857"/>
<feGaussianBlur stdDeviation="1.42857"/>
<feColorMatrix type="matrix" values="0 0 0 0 0 0 0 0 0 0 0 0 0 0 0 0 0 0 0.25 0"/>
<feBlend mode="normal" in2="BackgroundImageFix" result="effect1_dropShadow_6463_27826"/>
<feColorMatrix in="SourceAlpha" type="matrix" values="0 0 0 0 0 0 0 0 0 0 0 0 0 0 0 0 0 0 127 0" result="hardAlpha"/>
<feOffset dx="-1.42857" dy="-1.42857"/>
<feGaussianBlur stdDeviation="1.42857"/>
<feColorMatrix type="matrix" values="0 0 0 0 1 0 0 0 0 1 0 0 0 0 1 0 0 0 0.15 0"/>
<feBlend mode="normal" in2="effect1_dropShadow_6463_27826" result="effect2_dropShadow_6463_27826"/>
<feBlend mode="normal" in="SourceGraphic" in2="effect2_dropShadow_6463_27826" result="shape"/>
</filter>
<linearGradient id="paint0_linear_6463_27826" x1="12.3092" y1="7.55952" x2="30.7378" y2="31.1071" gradientUnits="userSpaceOnUse">
<stop stop-color="#FF00F5"/>
<stop offset="1" stop-color="#00F0FF"/>
</linearGradient>
<linearGradient id="paint1_linear_6463_27826" x1="12.3092" y1="7.55952" x2="30.7378" y2="31.1071" gradientUnits="userSpaceOnUse">
<stop stop-color="#FF00F5"/>
<stop offset="1" stop-color="#00F0FF"/>
</linearGradient>
</defs>
</svg>
