<svg width="40" height="40" viewBox="0 0 40 40" fill="none" xmlns="http://www.w3.org/2000/svg">
<g filter="url(#filter0_dd_6463_27838)">
<path d="M12.5033 20.425C12.4945 18.6318 12.5531 16.8397 12.8436 15.0687C12.953 14.3988 13.1065 13.719 13.3628 13.0958C13.8224 11.9746 14.7492 11.3979 15.9069 11.164C16.6846 11.0076 17.4192 11.1994 18.1483 11.4312C19.8805 11.9813 21.479 12.8241 23.051 13.7213C24.8472 14.746 26.6003 15.8416 28.1834 17.1857C28.6308 17.5661 29.0616 17.972 29.4648 18.4C30.5861 19.5911 30.511 21.4065 29.3433 22.5554C27.3427 24.5249 24.9897 25.9899 22.5726 27.3584C21.11 28.1868 19.6132 28.9409 17.9948 29.4288C17.026 29.7205 16.0671 29.8114 15.1171 29.4C14.1681 28.9897 13.5108 28.3121 13.207 27.2874C12.6425 25.3799 12.563 23.4171 12.5056 21.4508C12.4945 21.1082 12.5033 20.7666 12.5033 20.425ZM13.4832 17.9265C13.4711 18.0307 13.4512 18.125 13.4501 18.2193C13.4401 19.438 13.4081 20.6579 13.4324 21.8767C13.4666 23.6133 13.5771 25.3445 14.0764 27.0268C14.325 27.8641 14.884 28.3587 15.6771 28.6381C15.8473 28.698 15.9378 28.6536 16.0428 28.5161C16.6426 27.7232 17.2568 26.9403 17.8578 26.1474C18.3118 25.5496 18.4532 24.8754 18.2135 24.1612C17.7186 22.684 17.2049 21.2146 16.6813 19.7474C16.4294 19.0399 15.9157 18.5863 15.1977 18.3823C14.6431 18.2226 14.082 18.084 13.4832 17.9265ZM16.3631 11.9924C16.3731 12.101 16.3709 12.1299 16.3797 12.1543C16.7873 13.3287 17.1928 14.5053 17.607 15.6775C17.8556 16.3817 18.3317 16.8807 19.0431 17.0992C20.3224 17.4918 21.6104 17.8566 22.8974 18.2259C23.4034 18.3712 23.896 18.3036 24.37 18.0784C25.0482 17.7579 25.3631 17.097 25.8271 16.5458C25.7387 16.4793 25.679 16.4238 25.6105 16.3828C24.1877 15.5267 22.7814 14.6384 21.3332 13.8266C20.0528 13.1091 18.7184 12.4914 17.2811 12.1387C16.9928 12.0678 16.6923 12.0434 16.3631 11.9924ZM24.3567 20.3019C24.3037 19.9581 24.1534 19.7463 23.8242 19.6421C21.965 19.0499 20.1047 18.4644 18.2455 17.8744C17.9837 17.7912 17.754 17.8356 17.5617 18.0285C17.3673 18.2237 17.3375 18.4644 17.4203 18.7205C18.029 20.5836 18.6344 22.4478 19.2497 24.3098C19.4287 24.851 19.9832 24.9585 20.382 24.5482C20.7731 24.1457 21.1664 23.7464 21.5585 23.345C22.3948 22.4899 23.2332 21.6383 24.0618 20.7744C24.1877 20.6435 24.2595 20.4605 24.3567 20.3019ZM28.9975 21.5939C28.9876 21.564 28.9776 21.5329 28.9666 21.503C28.0243 21.371 27.0853 21.2102 26.1397 21.1193C25.6249 21.0693 25.1245 21.2557 24.7478 21.6172C23.7734 22.5554 22.8079 23.5058 21.8722 24.4817C21.2127 25.1703 21.2382 26.3026 21.6149 26.8626C24.2484 25.35 26.8732 23.8263 28.9975 21.5939ZM15.4032 12.2674C14.7768 12.5646 14.3195 12.9904 14.114 13.6514C13.8025 14.6517 13.6346 15.6775 13.5484 16.7199C13.5329 16.9074 13.5948 16.9717 13.7693 17.016C14.5691 17.219 15.3656 17.4319 16.161 17.6537C16.4714 17.7402 16.7443 17.7191 16.9674 17.4707C17.1917 17.2201 17.174 16.9384 17.0602 16.6423C16.7829 15.9204 16.5145 15.194 16.2405 14.4709C15.9632 13.7401 15.6849 13.0104 15.4032 12.2674ZM29.3532 20.5492C29.3764 20.0114 29.2671 19.5467 28.9368 19.1952C28.4408 18.6684 27.9006 18.1816 27.3681 17.6914C27.1483 17.4885 26.8986 17.3177 26.6523 17.1236C26.1264 17.6947 25.6183 18.2381 25.12 18.7915C25.0383 18.8824 24.9798 19.01 24.9543 19.1309C24.8472 19.6321 25.1598 20.0081 25.7265 20.0824C26.4346 20.1755 27.1427 20.2687 27.852 20.3596C28.3402 20.4228 28.8296 20.4827 29.3532 20.5492ZM17.1464 28.6969C18.4355 28.4008 19.5712 27.9007 20.6958 27.3207C20.6659 27.2208 20.6427 27.1332 20.6129 27.0478C20.487 26.6819 20.3853 26.3059 20.2263 25.9544C20.0351 25.5308 19.4508 25.4687 19.1746 25.8457C18.5018 26.7673 17.8512 27.7044 17.1464 28.6969Z" fill="url(#paint0_linear_6463_27838)"/>
<path fill-rule="evenodd" clip-rule="evenodd" d="M19.9997 5.71429C11.9127 5.71429 5.35686 12.2701 5.35686 20.3571C5.35686 28.4442 11.9127 35 19.9997 35C28.0867 35 34.6426 28.4442 34.6426 20.3571C34.6426 12.2701 28.0867 5.71429 19.9997 5.71429ZM4.64258 20.3571C4.64258 11.8756 11.5182 5 19.9997 5C28.4812 5 35.3569 11.8756 35.3569 20.3571C35.3569 28.8387 28.4812 35.7143 19.9997 35.7143C11.5182 35.7143 4.64258 28.8387 4.64258 20.3571Z" fill="url(#paint1_linear_6463_27838)"/>
</g>
<defs>
<filter id="filter0_dd_6463_27838" x="0.356864" y="0.714286" width="39.2863" height="39.2857" filterUnits="userSpaceOnUse" color-interpolation-filters="sRGB">
<feFlood flood-opacity="0" result="BackgroundImageFix"/>
<feColorMatrix in="SourceAlpha" type="matrix" values="0 0 0 0 0 0 0 0 0 0 0 0 0 0 0 0 0 0 127 0" result="hardAlpha"/>
<feOffset dx="1.42857" dy="1.42857"/>
<feGaussianBlur stdDeviation="1.42857"/>
<feColorMatrix type="matrix" values="0 0 0 0 0 0 0 0 0 0 0 0 0 0 0 0 0 0 0.25 0"/>
<feBlend mode="normal" in2="BackgroundImageFix" result="effect1_dropShadow_6463_27838"/>
<feColorMatrix in="SourceAlpha" type="matrix" values="0 0 0 0 0 0 0 0 0 0 0 0 0 0 0 0 0 0 127 0" result="hardAlpha"/>
<feOffset dx="-1.42857" dy="-1.42857"/>
<feGaussianBlur stdDeviation="1.42857"/>
<feColorMatrix type="matrix" values="0 0 0 0 1 0 0 0 0 1 0 0 0 0 1 0 0 0 0.15 0"/>
<feBlend mode="normal" in2="effect1_dropShadow_6463_27838" result="effect2_dropShadow_6463_27838"/>
<feBlend mode="normal" in="SourceGraphic" in2="effect2_dropShadow_6463_27838" result="shape"/>
</filter>
<linearGradient id="paint0_linear_6463_27838" x1="16.6449" y1="12.6548" x2="27.8969" y2="26.4072" gradientUnits="userSpaceOnUse">
<stop stop-color="#FF00F5"/>
<stop offset="1" stop-color="#00F0FF"/>
</linearGradient>
<linearGradient id="paint1_linear_6463_27838" x1="11.8092" y1="7.55952" x2="30.2378" y2="31.1071" gradientUnits="userSpaceOnUse">
<stop stop-color="#FF00F5"/>
<stop offset="1" stop-color="#00F0FF"/>
</linearGradient>
</defs>
</svg>
