<svg width="28" height="30" viewBox="0 0 28 30" fill="none" xmlns="http://www.w3.org/2000/svg">
<path d="M0.703903 30C0.234612 29.7657 0 29.1798 0 28.5938C0 28.4766 0 28.2423 0 28.1251C0 19.4536 0 10.782 0 2.22765C0 1.75891 0.117306 1.40741 0.234612 0.938672C0.351986 0.704268 0.586597 0.469932 0.821277 0.235596C5.86604 5.27443 10.7935 10.3133 15.7209 15.3522C10.6762 20.0394 5.74873 24.9612 0.703903 30Z" fill="url(#paint0_linear_56_5902)"/>
<path d="M20.6461 10.1949C19.2382 11.6011 17.713 13.0073 16.3052 14.5307C11.6124 9.72616 6.80222 4.92167 2.10938 0.117168C2.10938 0.117168 2.10937 0 2.22668 0C8.32739 3.39828 14.428 6.79662 20.6461 10.1949Z" fill="url(#paint1_linear_56_5902)"/>
<path d="M2.10938 29.9984C6.80222 25.3111 11.6124 20.6238 16.3052 15.9365C17.5957 17.2255 19.0036 18.5145 20.5288 19.9207C14.428 23.319 8.3274 26.7173 2.22668 29.9984H2.10938Z" fill="url(#paint2_linear_56_5902)"/>
<path d="M21.3488 19.453C19.8236 18.0469 18.4158 16.6407 16.8906 15.2345C18.4158 13.7111 19.941 12.1877 21.4661 10.6643C21.9354 10.8987 22.4047 11.1331 22.874 11.4846C24.0472 12.1877 25.3377 12.7736 26.5109 13.4767C26.8629 13.5939 27.0975 13.8283 27.3321 14.1798C27.8014 14.7657 27.8014 15.3517 27.3321 15.9376C27.0975 16.1719 26.8629 16.4063 26.5109 16.5235C24.8684 17.5781 23.1086 18.5156 21.3488 19.453Z" fill="url(#paint3_linear_56_5902)"/>
<defs>
<linearGradient id="paint0_linear_56_5902" x1="3.66822" y1="2.71596" x2="20.7301" y2="14.2309" gradientUnits="userSpaceOnUse">
<stop stop-color="#BC00B5"/>
<stop offset="1" stop-color="#00A9DE"/>
</linearGradient>
<linearGradient id="paint1_linear_56_5902" x1="6.4346" y1="1.21089" x2="14.4413" y2="14.2622" gradientUnits="userSpaceOnUse">
<stop stop-color="#BC00B5"/>
<stop offset="1" stop-color="#00A9DE"/>
</linearGradient>
<linearGradient id="paint2_linear_56_5902" x1="6.40723" y1="17.1083" x2="14.0612" y2="29.9191" gradientUnits="userSpaceOnUse">
<stop stop-color="#BC00B5"/>
<stop offset="1" stop-color="#00A9DE"/>
</linearGradient>
<linearGradient id="paint3_linear_56_5902" x1="19.4091" y1="11.3967" x2="24.3331" y2="19.1238" gradientUnits="userSpaceOnUse">
<stop stop-color="#BC00B5"/>
<stop offset="1" stop-color="#00A9DE"/>
</linearGradient>
</defs>
</svg>
