<svg width="31" height="31" viewBox="0 0 31 31" fill="none" xmlns="http://www.w3.org/2000/svg">
<path fill-rule="evenodd" clip-rule="evenodd" d="M15.4997 0.714286C7.41269 0.714286 0.856864 7.27012 0.856864 15.3571C0.856864 23.4442 7.41269 30 15.4997 30C23.5867 30 30.1426 23.4442 30.1426 15.3571C30.1426 7.27012 23.5867 0.714286 15.4997 0.714286ZM0.142578 15.3571C0.142578 6.87563 7.0182 0 15.4997 0C23.9812 0 30.8569 6.87563 30.8569 15.3571C30.8569 23.8387 23.9812 30.7143 15.4997 30.7143C7.0182 30.7143 0.142578 23.8387 0.142578 15.3571Z" fill="url(#paint0_linear_30_4826)"/>
<path fill-rule="evenodd" clip-rule="evenodd" d="M15.7896 5.9561C15.4 5.9561 15.0168 6.05462 14.6756 6.2425C14.3344 6.43037 14.0462 6.7015 13.8379 7.03065C13.6296 7.35981 13.5079 7.73631 13.4842 8.12512C13.4604 8.51394 13.5354 8.90243 13.7022 9.25448C13.7546 9.36512 13.7466 9.4949 13.6812 9.59835C13.6157 9.70179 13.5018 9.7645 13.3794 9.7645L8.93195 9.76445C8.87878 9.76445 8.82614 9.77492 8.77703 9.79526C8.72791 9.81561 8.68328 9.84543 8.64569 9.88302C8.6081 9.92061 8.57828 9.96524 8.55793 10.0144C8.53759 10.0635 8.52712 10.1161 8.52712 10.1693L8.52717 14.2357C8.52717 14.3582 8.46446 14.4721 8.36102 14.5375C8.25757 14.603 8.12779 14.6109 8.01715 14.5585C7.6651 14.3918 7.2766 14.3168 6.88779 14.3405C6.49897 14.3642 6.12248 14.4859 5.79332 14.6942C5.46416 14.9025 5.19303 15.1907 5.00516 15.532C4.81728 15.8732 4.71876 16.2564 4.71876 16.646C4.71876 17.0355 4.81728 17.4187 5.00516 17.7599C5.19303 18.1012 5.46416 18.3894 5.79332 18.5977C6.12248 18.806 6.49897 18.9277 6.88779 18.9514C7.2766 18.9751 7.6651 18.9001 8.01715 18.7334C8.1278 18.681 8.25757 18.6889 8.36102 18.7544C8.46446 18.8198 8.52717 18.9337 8.52717 19.0562L8.52712 23.1226C8.52712 23.1758 8.53759 23.2284 8.55793 23.2775C8.57828 23.3267 8.6081 23.3713 8.64569 23.4089C8.68327 23.4465 8.7279 23.4763 8.77702 23.4966C8.82613 23.517 8.87877 23.5275 8.93194 23.5275L22.6472 23.5274C22.7546 23.5274 22.8576 23.4848 22.9335 23.4089C23.0094 23.333 23.052 23.23 23.052 23.1226L23.0521 19.5665C22.7378 19.6509 22.4107 19.6843 22.0835 19.6643C21.5744 19.6333 21.0815 19.474 20.6506 19.2012C20.2196 18.9285 19.8646 18.5512 19.6187 18.1044C19.3727 17.6577 19.2437 17.156 19.2437 16.6459C19.2437 16.1359 19.3727 15.6342 19.6187 15.1875C19.8646 14.7407 20.2196 14.3634 20.6506 14.0907C21.0815 13.8179 21.5744 13.6586 22.0835 13.6276C22.4107 13.6076 22.7378 13.641 23.0521 13.7254L23.052 10.1693C23.052 10.0619 23.0094 9.95893 22.9335 9.88301C22.8576 9.8071 22.7546 9.76445 22.6472 9.76445L18.1998 9.7645C18.0774 9.7645 17.9635 9.70179 17.898 9.59835C17.8325 9.4949 17.8246 9.36512 17.877 9.25448C18.0438 8.90243 18.1187 8.51394 18.095 8.12512C18.0713 7.73631 17.9496 7.35981 17.7413 7.03065C17.533 6.7015 17.2448 6.43037 16.9036 6.2425C16.5623 6.05462 16.1791 5.9561 15.7896 5.9561ZM14.3311 5.61678C14.7779 5.3708 15.2796 5.24182 15.7896 5.24182C16.2996 5.24182 16.8013 5.3708 17.2481 5.61678C17.6948 5.86275 18.0721 6.21773 18.3449 6.64868C18.6176 7.07963 18.7769 7.57256 18.808 8.08161C18.8279 8.40884 18.7945 8.73589 18.7101 9.05021L22.6472 9.05016C22.944 9.05016 23.2287 9.16806 23.4385 9.37793C23.6484 9.5878 23.7663 9.87245 23.7663 10.1693L23.7664 14.2357C23.7664 14.3582 23.7037 14.4721 23.6002 14.5375C23.4968 14.603 23.367 14.6109 23.2564 14.5585C22.9043 14.3918 22.5158 14.3168 22.127 14.3405C21.7382 14.3642 21.3617 14.4859 21.0325 14.6942C20.7034 14.9025 20.4322 15.1907 20.2444 15.532C20.0565 15.8732 19.958 16.2564 19.958 16.6459C19.958 17.0355 20.0565 17.4187 20.2444 17.7599C20.4322 18.1012 20.7034 18.3894 21.0325 18.5977C21.3617 18.806 21.7382 18.9277 22.127 18.9514C22.5158 18.9751 22.9043 18.9001 23.2564 18.7334C23.367 18.681 23.4968 18.6889 23.6002 18.7544C23.7037 18.8198 23.7664 18.9337 23.7664 19.0562L23.7663 23.1226C23.7663 23.4194 23.6484 23.7041 23.4386 23.914C23.2287 24.1238 22.944 24.2417 22.6472 24.2417L8.93194 24.2417C8.78497 24.2417 8.63945 24.2128 8.50367 24.1565C8.3679 24.1003 8.24453 24.0179 8.14061 23.914C8.03669 23.81 7.95425 23.6867 7.89802 23.5509C7.84178 23.4151 7.81283 23.2696 7.81283 23.1226L7.81288 19.5665C7.49856 19.6509 7.1715 19.6843 6.84428 19.6643C6.33522 19.6333 5.84229 19.474 5.41134 19.2012C4.98039 18.9285 4.62541 18.5512 4.37944 18.1044C4.13346 17.6577 4.00448 17.156 4.00448 16.646C4.00448 16.1359 4.13346 15.6342 4.37944 15.1875C4.62541 14.7407 4.98039 14.3634 5.41134 14.0907C5.84229 13.8179 6.33522 13.6586 6.84428 13.6276C7.1715 13.6076 7.49856 13.641 7.81288 13.7254L7.81283 10.1693C7.81283 10.0223 7.84178 9.87679 7.89802 9.74101C7.95426 9.60523 8.03669 9.48186 8.14061 9.37794C8.24453 9.27402 8.36791 9.19159 8.50368 9.13535C8.63946 9.07911 8.78499 9.05016 8.93196 9.05016L12.8691 9.05021C12.7847 8.73589 12.7512 8.40884 12.7712 8.08161C12.8023 7.57256 12.9616 7.07963 13.2343 6.64868C13.507 6.21773 13.8843 5.86275 14.3311 5.61678Z" fill="url(#paint1_linear_30_4826)"/>
<defs>
<linearGradient id="paint0_linear_30_4826" x1="7.30924" y1="2.55952" x2="25.7378" y2="26.1071" gradientUnits="userSpaceOnUse">
<stop stop-color="#FF00F5"/>
<stop offset="1" stop-color="#00F0FF"/>
</linearGradient>
<linearGradient id="paint1_linear_30_4826" x1="7.30924" y1="2.55952" x2="25.7378" y2="26.1071" gradientUnits="userSpaceOnUse">
<stop stop-color="#FF00F5"/>
<stop offset="1" stop-color="#00F0FF"/>
</linearGradient>
</defs>
</svg>
