<svg width="40" height="40" viewBox="0 0 40 40" fill="none" xmlns="http://www.w3.org/2000/svg">
<g filter="url(#filter0_dd_6463_27829)">
<path fill-rule="evenodd" clip-rule="evenodd" d="M19.7849 5C11.6979 5 5.14202 11.5558 5.14202 19.6429C5.14202 27.7299 11.6979 34.2857 19.7849 34.2857C27.8719 34.2857 34.4277 27.7299 34.4277 19.6429C34.4277 11.5558 27.8719 5 19.7849 5ZM4.42773 19.6429C4.42773 11.1613 11.3034 4.28571 19.7849 4.28571C28.2664 4.28571 35.142 11.1613 35.142 19.6429C35.142 28.1244 28.2664 35 19.7849 35C11.3034 35 4.42773 28.1244 4.42773 19.6429Z" fill="url(#paint0_linear_6463_27829)"/>
<path fill-rule="evenodd" clip-rule="evenodd" d="M13.5944 17.6786C12.9405 17.6786 12.4039 18.2151 12.4039 18.869V25.0595C12.4039 25.7135 12.9405 26.25 13.5944 26.25H25.9754C26.6293 26.25 27.1658 25.7135 27.1658 25.0595V18.869C27.1658 18.2151 26.6293 17.6786 25.9754 17.6786H13.5944ZM11.6896 18.869C11.6896 17.8206 12.546 16.9643 13.5944 16.9643H25.9754C27.0238 16.9643 27.8801 17.8206 27.8801 18.869V25.0595C27.8801 26.108 27.0238 26.9643 25.9754 26.9643H13.5944C12.546 26.9643 11.6896 26.108 11.6896 25.0595V18.869Z" fill="url(#paint1_linear_6463_27829)"/>
<path fill-rule="evenodd" clip-rule="evenodd" d="M13.5944 14.6429C13.5944 14.4456 13.7543 14.2857 13.9515 14.2857H25.6182C25.8155 14.2857 25.9754 14.4456 25.9754 14.6429C25.9754 14.8401 25.8155 15 25.6182 15H13.9515C13.7543 15 13.5944 14.8401 13.5944 14.6429Z" fill="url(#paint2_linear_6463_27829)"/>
<path fill-rule="evenodd" clip-rule="evenodd" d="M15.142 12.3214C15.142 12.1242 15.3019 11.9643 15.4992 11.9643H24.0706C24.2678 11.9643 24.4277 12.1242 24.4277 12.3214C24.4277 12.5187 24.2678 12.6786 24.0706 12.6786H15.4992C15.3019 12.6786 15.142 12.5187 15.142 12.3214Z" fill="url(#paint3_linear_6463_27829)"/>
</g>
<defs>
<filter id="filter0_dd_6463_27829" x="0.14202" y="-1.19209e-06" width="40.0011" height="40" filterUnits="userSpaceOnUse" color-interpolation-filters="sRGB">
<feFlood flood-opacity="0" result="BackgroundImageFix"/>
<feColorMatrix in="SourceAlpha" type="matrix" values="0 0 0 0 0 0 0 0 0 0 0 0 0 0 0 0 0 0 127 0" result="hardAlpha"/>
<feOffset dx="1.42857" dy="1.42857"/>
<feGaussianBlur stdDeviation="1.42857"/>
<feColorMatrix type="matrix" values="0 0 0 0 0 0 0 0 0 0 0 0 0 0 0 0 0 0 0.25 0"/>
<feBlend mode="normal" in2="BackgroundImageFix" result="effect1_dropShadow_6463_27829"/>
<feColorMatrix in="SourceAlpha" type="matrix" values="0 0 0 0 0 0 0 0 0 0 0 0 0 0 0 0 0 0 127 0" result="hardAlpha"/>
<feOffset dx="-1.42857" dy="-1.42857"/>
<feGaussianBlur stdDeviation="1.42857"/>
<feColorMatrix type="matrix" values="0 0 0 0 1 0 0 0 0 1 0 0 0 0 1 0 0 0 0.15 0"/>
<feBlend mode="normal" in2="effect1_dropShadow_6463_27829" result="effect2_dropShadow_6463_27829"/>
<feBlend mode="normal" in="SourceGraphic" in2="effect2_dropShadow_6463_27829" result="shape"/>
</filter>
<linearGradient id="paint0_linear_6463_27829" x1="11.5944" y1="6.84524" x2="30.023" y2="30.3929" gradientUnits="userSpaceOnUse">
<stop stop-color="#FF00F5"/>
<stop offset="1" stop-color="#00F0FF"/>
</linearGradient>
<linearGradient id="paint1_linear_6463_27829" x1="11.5944" y1="6.84524" x2="30.023" y2="30.3929" gradientUnits="userSpaceOnUse">
<stop stop-color="#FF00F5"/>
<stop offset="1" stop-color="#00F0FF"/>
</linearGradient>
<linearGradient id="paint2_linear_6463_27829" x1="11.5944" y1="6.84524" x2="30.023" y2="30.3929" gradientUnits="userSpaceOnUse">
<stop stop-color="#FF00F5"/>
<stop offset="1" stop-color="#00F0FF"/>
</linearGradient>
<linearGradient id="paint3_linear_6463_27829" x1="11.5944" y1="6.84524" x2="30.023" y2="30.3929" gradientUnits="userSpaceOnUse">
<stop stop-color="#FF00F5"/>
<stop offset="1" stop-color="#00F0FF"/>
</linearGradient>
</defs>
</svg>
