<svg width="40" height="40" viewBox="0 0 40 40" fill="none" xmlns="http://www.w3.org/2000/svg">
<g filter="url(#filter0_dd_6463_27832)">
<path fill-rule="evenodd" clip-rule="evenodd" d="M19.9997 5.71429C11.9127 5.71429 5.35686 12.2701 5.35686 20.3571C5.35686 28.4442 11.9127 35 19.9997 35C28.0867 35 34.6426 28.4442 34.6426 20.3571C34.6426 12.2701 28.0867 5.71429 19.9997 5.71429ZM4.64258 20.3571C4.64258 11.8756 11.5182 5 19.9997 5C28.4812 5 35.3569 11.8756 35.3569 20.3571C35.3569 28.8387 28.4812 35.7143 19.9997 35.7143C11.5182 35.7143 4.64258 28.8387 4.64258 20.3571Z" fill="url(#paint0_linear_6463_27832)"/>
<path fill-rule="evenodd" clip-rule="evenodd" d="M11.0304 18.6496C10.9296 18.6496 10.8324 18.6898 10.7604 18.7624C10.6883 18.835 10.6473 18.934 10.6473 19.0377V27.2362C10.6473 27.34 10.6883 27.439 10.7604 27.5116C10.8324 27.5841 10.9296 27.6244 11.0304 27.6244H15.1142V18.6496H11.0304ZM11.0304 17.9353H15.4713C15.6686 17.9353 15.8285 18.0952 15.8285 18.2924V27.9815C15.8285 28.1788 15.6686 28.3387 15.4713 28.3387H11.0304C10.7385 28.3387 10.4592 28.2219 10.2536 28.0149C10.0481 27.808 9.93306 27.5278 9.93306 27.2362V19.0377C9.93306 18.7461 10.0481 18.466 10.2536 18.2591C10.4592 18.052 10.7385 17.9353 11.0304 17.9353Z" fill="url(#paint1_linear_6463_27832)"/>
<path fill-rule="evenodd" clip-rule="evenodd" d="M18.8523 10.6782C18.9126 10.5567 19.0365 10.4799 19.1721 10.4799C19.6082 10.4799 20.0399 10.5664 20.4426 10.7344C20.8453 10.9023 21.2111 11.1485 21.519 11.4586C21.827 11.7687 22.0712 12.1367 22.2377 12.5416C22.4042 12.9464 22.4899 13.3803 22.4899 13.8183V15.6971H27.8575C28.1184 15.6971 28.3763 15.753 28.6139 15.861C28.8516 15.9689 29.0635 16.1265 29.2358 16.323C29.4081 16.5195 29.5367 16.7504 29.6134 17.0005C29.6901 17.2506 29.713 17.5142 29.6808 17.7738L28.5706 26.7176C28.5152 27.1638 28.2998 27.5748 27.9642 27.8732C27.6286 28.1715 27.1958 28.3365 26.7473 28.3365H15.4713C15.2741 28.3365 15.1142 28.1766 15.1142 27.9794C15.1142 27.7821 15.2741 27.6222 15.4713 27.6222H26.7473C27.0203 27.6222 27.2843 27.5218 27.4897 27.3393C27.6951 27.1567 27.8276 26.9044 27.8617 26.6296L28.972 17.6858C28.9918 17.526 28.9777 17.3637 28.9305 17.2099C28.8833 17.0561 28.8043 16.9143 28.6987 16.7938C28.5931 16.6734 28.4635 16.5772 28.3185 16.5113C28.1735 16.4454 28.0164 16.4114 27.8575 16.4114H22.1328C21.9355 16.4114 21.7756 16.2515 21.7756 16.0543V13.8183C21.7756 13.4734 21.7082 13.1319 21.5771 12.8133C21.4461 12.4948 21.2541 12.2055 21.0122 11.9619C20.7703 11.7184 20.4833 11.5253 20.1676 11.3936C19.919 11.2899 19.6563 11.2258 19.389 11.2033L15.7912 18.4491C15.7035 18.6257 15.4892 18.6978 15.3125 18.6101C15.1359 18.5224 15.0637 18.3081 15.1515 18.1314L18.8523 10.6782Z" fill="url(#paint2_linear_6463_27832)"/>
</g>
<defs>
<filter id="filter0_dd_6463_27832" x="0.356864" y="0.714286" width="39.2863" height="39.2857" filterUnits="userSpaceOnUse" color-interpolation-filters="sRGB">
<feFlood flood-opacity="0" result="BackgroundImageFix"/>
<feColorMatrix in="SourceAlpha" type="matrix" values="0 0 0 0 0 0 0 0 0 0 0 0 0 0 0 0 0 0 127 0" result="hardAlpha"/>
<feOffset dx="1.42857" dy="1.42857"/>
<feGaussianBlur stdDeviation="1.42857"/>
<feColorMatrix type="matrix" values="0 0 0 0 0 0 0 0 0 0 0 0 0 0 0 0 0 0 0.25 0"/>
<feBlend mode="normal" in2="BackgroundImageFix" result="effect1_dropShadow_6463_27832"/>
<feColorMatrix in="SourceAlpha" type="matrix" values="0 0 0 0 0 0 0 0 0 0 0 0 0 0 0 0 0 0 127 0" result="hardAlpha"/>
<feOffset dx="-1.42857" dy="-1.42857"/>
<feGaussianBlur stdDeviation="1.42857"/>
<feColorMatrix type="matrix" values="0 0 0 0 1 0 0 0 0 1 0 0 0 0 1 0 0 0 0.15 0"/>
<feBlend mode="normal" in2="effect1_dropShadow_6463_27832" result="effect2_dropShadow_6463_27832"/>
<feBlend mode="normal" in="SourceGraphic" in2="effect2_dropShadow_6463_27832" result="shape"/>
</filter>
<linearGradient id="paint0_linear_6463_27832" x1="11.8092" y1="7.55952" x2="30.2378" y2="31.1071" gradientUnits="userSpaceOnUse">
<stop stop-color="#FF00F5"/>
<stop offset="1" stop-color="#00F0FF"/>
</linearGradient>
<linearGradient id="paint1_linear_6463_27832" x1="11.8092" y1="7.55952" x2="30.2378" y2="31.1071" gradientUnits="userSpaceOnUse">
<stop stop-color="#FF00F5"/>
<stop offset="1" stop-color="#00F0FF"/>
</linearGradient>
<linearGradient id="paint2_linear_6463_27832" x1="11.8092" y1="7.55952" x2="30.2378" y2="31.1071" gradientUnits="userSpaceOnUse">
<stop stop-color="#FF00F5"/>
<stop offset="1" stop-color="#00F0FF"/>
</linearGradient>
</defs>
</svg>
