<svg width="78" height="86" viewBox="0 0 78 86" fill="none" xmlns="http://www.w3.org/2000/svg">
<g filter="url(#filter0_dd_6463_27702)">
<path d="M14.9382 50V36.9091H23.0561V38.6094H16.9134V42.598H22.4744V44.2919H16.9134V50H14.9382ZM25.9757 50.1214C25.6262 50.1214 25.3258 49.9979 25.0744 49.7507C24.823 49.4993 24.6973 49.1967 24.6973 48.843C24.6973 48.4936 24.823 48.1953 25.0744 47.9482C25.3258 47.6967 25.6262 47.571 25.9757 47.571C26.3251 47.571 26.6255 47.6967 26.877 47.9482C27.1284 48.1953 27.2541 48.4936 27.2541 48.843C27.2541 49.0774 27.1944 49.2926 27.0751 49.4886C26.96 49.6804 26.8066 49.8338 26.6149 49.9489C26.4231 50.0639 26.21 50.1214 25.9757 50.1214ZM31.0733 50H28.9767L33.6877 36.9091H35.9696L40.6806 50H38.584L34.883 39.2869H34.7807L31.0733 50ZM31.4249 44.8736H38.226V46.5355H31.4249V44.8736ZM43.6768 50.1214C43.3274 50.1214 43.027 49.9979 42.7756 49.7507C42.5241 49.4993 42.3984 49.1967 42.3984 48.843C42.3984 48.4936 42.5241 48.1953 42.7756 47.9482C43.027 47.6967 43.3274 47.571 43.6768 47.571C44.0263 47.571 44.3267 47.6967 44.5781 47.9482C44.8295 48.1953 44.9553 48.4936 44.9553 48.843C44.9553 49.0774 44.8956 49.2926 44.7763 49.4886C44.6612 49.6804 44.5078 49.8338 44.3161 49.9489C44.1243 50.0639 43.9112 50.1214 43.6768 50.1214ZM52.4819 45.7557H54.4251L55.793 47.5391L56.4386 48.3317L58.6183 51.1761H56.5984L55.141 49.2777L54.6424 48.5874L52.4819 45.7557ZM59.0401 43.4545C59.0401 44.8523 58.7844 46.054 58.2731 47.0597C57.7617 48.0611 57.0607 48.8324 56.1701 49.3736C55.2837 49.9105 54.2759 50.179 53.1467 50.179C52.0131 50.179 51.0011 49.9105 50.1104 49.3736C49.2241 48.8324 48.5252 48.0589 48.0138 47.0533C47.5025 46.0476 47.2468 44.848 47.2468 43.4545C47.2468 42.0568 47.5025 40.8572 48.0138 39.8558C48.5252 38.8501 49.2241 38.0788 50.1104 37.5419C51.0011 37.0007 52.0131 36.7301 53.1467 36.7301C54.2759 36.7301 55.2837 37.0007 56.1701 37.5419C57.0607 38.0788 57.7617 38.8501 58.2731 39.8558C58.7844 40.8572 59.0401 42.0568 59.0401 43.4545ZM57.0842 43.4545C57.0842 42.3892 56.9116 41.4922 56.5664 40.7635C56.2255 40.0305 55.7567 39.4766 55.1602 39.1016C54.5678 38.7223 53.8967 38.5327 53.1467 38.5327C52.3924 38.5327 51.7191 38.7223 51.1268 39.1016C50.5344 39.4766 50.0657 40.0305 49.7205 40.7635C49.3796 41.4922 49.2092 42.3892 49.2092 43.4545C49.2092 44.5199 49.3796 45.419 49.7205 46.152C50.0657 46.8807 50.5344 47.4347 51.1268 47.8139C51.7191 48.1889 52.3924 48.3764 53.1467 48.3764C53.8967 48.3764 54.5678 48.1889 55.1602 47.8139C55.7567 47.4347 56.2255 46.8807 56.5664 46.152C56.9116 45.419 57.0842 44.5199 57.0842 43.4545ZM61.7823 50.1214C61.4329 50.1214 61.1325 49.9979 60.881 49.7507C60.6296 49.4993 60.5039 49.1967 60.5039 48.843C60.5039 48.4936 60.6296 48.1953 60.881 47.9482C61.1325 47.6967 61.4329 47.571 61.7823 47.571C62.1317 47.571 62.4322 47.6967 62.6836 47.9482C62.935 48.1953 63.0607 48.4936 63.0607 48.843C63.0607 49.0774 63.0011 49.2926 62.8817 49.4886C62.7667 49.6804 62.6133 49.8338 62.4215 49.9489C62.2298 50.0639 62.0167 50.1214 61.7823 50.1214Z" fill="white"/>
<rect x="5.5" y="9.5" width="67" height="67" rx="33.5" stroke="url(#paint0_linear_6463_27702)" stroke-width="3" shape-rendering="crispEdges"/>
</g>
<defs>
<filter id="filter0_dd_6463_27702" x="0" y="0" width="78" height="86" filterUnits="userSpaceOnUse" color-interpolation-filters="sRGB">
<feFlood flood-opacity="0" result="BackgroundImageFix"/>
<feColorMatrix in="SourceAlpha" type="matrix" values="0 0 0 0 0 0 0 0 0 0 0 0 0 0 0 0 0 0 127 0" result="hardAlpha"/>
<feOffset dy="4"/>
<feGaussianBlur stdDeviation="2"/>
<feComposite in2="hardAlpha" operator="out"/>
<feColorMatrix type="matrix" values="0 0 0 0 0.133333 0 0 0 0 0.854902 0 0 0 0 0.898039 0 0 0 0.25 0"/>
<feBlend mode="normal" in2="BackgroundImageFix" result="effect1_dropShadow_6463_27702"/>
<feColorMatrix in="SourceAlpha" type="matrix" values="0 0 0 0 0 0 0 0 0 0 0 0 0 0 0 0 0 0 127 0" result="hardAlpha"/>
<feOffset dy="-4"/>
<feGaussianBlur stdDeviation="2"/>
<feComposite in2="hardAlpha" operator="out"/>
<feColorMatrix type="matrix" values="0 0 0 0 1 0 0 0 0 0 0 0 0 0 0.96 0 0 0 0.25 0"/>
<feBlend mode="normal" in2="effect1_dropShadow_6463_27702" result="effect2_dropShadow_6463_27702"/>
<feBlend mode="normal" in="SourceGraphic" in2="effect2_dropShadow_6463_27702" result="shape"/>
</filter>
<linearGradient id="paint0_linear_6463_27702" x1="20.3333" y1="13.8333" x2="62.3333" y2="67.5" gradientUnits="userSpaceOnUse">
<stop stop-color="#FF00F5"/>
<stop offset="1" stop-color="#00F0FF"/>
</linearGradient>
</defs>
</svg>
