<svg width="30" height="30" viewBox="0 0 30 30" fill="none" xmlns="http://www.w3.org/2000/svg">
<path fill-rule="evenodd" clip-rule="evenodd" d="M0 15C0 6.72 6.72 0 15 0C23.28 0 30 6.72 30 15C30 23.28 23.28 30 15 30C6.72 30 0 23.28 0 15ZM13.5 19.5C13.5 20.325 12.825 21 12 21C11.175 21 10.5 20.325 10.5 19.5V10.5C10.5 9.675 11.175 9 12 9C12.825 9 13.5 9.675 13.5 10.5V19.5ZM15 27C8.385 27 3 21.615 3 15C3 8.385 8.385 3 15 3C21.615 3 27 8.385 27 15C27 21.615 21.615 27 15 27ZM19.5 19.5C19.5 20.325 18.825 21 18 21C17.175 21 16.5 20.325 16.5 19.5V10.5C16.5 9.675 17.175 9 18 9C18.825 9 19.5 9.675 19.5 10.5V19.5Z" fill="url(#paint0_linear_6393_19819)"/>
<defs>
<linearGradient id="paint0_linear_6393_19819" x1="7" y1="2.5" x2="25" y2="25.5" gradientUnits="userSpaceOnUse">
<stop stop-color="#FF00F5"/>
<stop offset="1" stop-color="#00F0FF"/>
</linearGradient>
</defs>
</svg>
