<svg width="246" height="40" viewBox="0 0 246 40" fill="none" xmlns="http://www.w3.org/2000/svg">
<g filter="url(#filter0_i_6393_19406)">
<path d="M13.8992 22.9517L13.733 22.8966L13.4562 22.8414L13.4073 22.8287C12.1223 22.4948 9.77338 21.8846 7.58639 20.4138C4.48539 18.3724 2.76876 15.3931 2.60263 11.6966C2.43651 8.6069 3.43326 5.90345 5.42676 3.8069C8.30627 0.827586 12.4594 0 14.4529 0C20.0911 0 23.2463 2.03414 26.0666 3.85237L26.0817 3.86207L27.3553 4.68965L23.3129 11.2552L21.9286 10.3724L21.8703 10.335C19.4115 8.7561 17.8044 7.72414 14.4529 7.72414C13.9545 7.72414 12.0164 8.11035 11.0197 9.15862C10.6874 9.48965 10.2998 10.0966 10.3552 11.3655C10.4105 13.3517 11.7949 14.4552 15.3389 15.3379C15.7819 15.4483 16.1142 15.5586 16.4464 15.669C20.1565 16.9379 23.0361 18.6483 25.0296 20.8C27.0231 23.0069 28.0752 25.6 28.0752 28.3586C28.0752 31.0621 26.9123 33.8759 24.9742 36.0276C22.7038 38.5655 19.5474 40 16.0588 40C14.3422 40 12.0164 39.8897 9.24765 39.0621C5.75901 37.9586 2.65801 36.0276 0 33.2138L5.64826 27.9172C9.74602 32.2759 14.3422 32.2759 16.0588 32.2759C19.2705 32.2759 20.3227 29.3517 20.3227 28.3586C20.3227 26.2621 17.9415 24.331 13.8992 22.9517Z" fill="url(#paint0_linear_6393_19406)"/>
<path d="M52.6994 0.551724H78.5596V8.27586H60.4519V15.3931H75.4032V23.1172H60.4519V39.2276H52.6994V0.551724Z" fill="url(#paint1_linear_6393_19406)"/>
<path d="M104.047 0.551724H129.907V8.27586H104.047V0.551724Z" fill="url(#paint2_linear_6393_19406)"/>
<path d="M125.477 23.1724H104.047V15.4483H125.477V23.1724Z" fill="url(#paint3_linear_6393_19406)"/>
<path d="M129.741 39.2276H104.047V31.5035H129.741V39.2276Z" fill="url(#paint4_linear_6393_19406)"/>
<path d="M174.688 12.1379C174.688 9.98621 172.971 8.22069 170.812 8.22069H163.391V39.1724H155.639V0.496552H170.812C177.235 0.496552 182.44 5.73793 182.44 12.1379C182.44 16.8276 179.672 20.8552 175.629 22.6759L183.326 39.2276H175.075L167.821 23.7241V16H170.812C172.971 16 174.688 14.2897 174.688 12.1379Z" fill="url(#paint5_linear_6393_19406)"/>
<path d="M205.433 39.2276L225.202 0.551724H227.472L245.802 39.2276H237.218L234.637 33.7495H225.089V27.1524H231.529L226.143 15.7241L214.127 39.2276H205.433Z" fill="url(#paint6_linear_6393_19406)"/>
</g>
<defs>
<filter id="filter0_i_6393_19406" x="0" y="0" width="246.52" height="42.5671" filterUnits="userSpaceOnUse" color-interpolation-filters="sRGB">
<feFlood flood-opacity="0" result="BackgroundImageFix"/>
<feBlend mode="normal" in="SourceGraphic" in2="BackgroundImageFix" result="shape"/>
<feColorMatrix in="SourceAlpha" type="matrix" values="0 0 0 0 0 0 0 0 0 0 0 0 0 0 0 0 0 0 127 0" result="hardAlpha"/>
<feOffset dx="0.715292" dy="2.86117"/>
<feGaussianBlur stdDeviation="1.28355"/>
<feComposite in2="hardAlpha" operator="arithmetic" k2="-1" k3="1"/>
<feColorMatrix type="matrix" values="0 0 0 0 0 0 0 0 0 0 0 0 0 0 0 0 0 0 0.5 0"/>
<feBlend mode="normal" in2="shape" result="effect1_innerShadow_6393_19406"/>
</filter>
<linearGradient id="paint0_linear_6393_19406" x1="122.901" y1="0" x2="122.901" y2="40" gradientUnits="userSpaceOnUse">
<stop stop-color="#28282C"/>
<stop offset="1"/>
</linearGradient>
<linearGradient id="paint1_linear_6393_19406" x1="122.901" y1="0" x2="122.901" y2="40" gradientUnits="userSpaceOnUse">
<stop stop-color="#28282C"/>
<stop offset="1"/>
</linearGradient>
<linearGradient id="paint2_linear_6393_19406" x1="122.901" y1="0" x2="122.901" y2="40" gradientUnits="userSpaceOnUse">
<stop stop-color="#28282C"/>
<stop offset="1"/>
</linearGradient>
<linearGradient id="paint3_linear_6393_19406" x1="122.901" y1="0" x2="122.901" y2="40" gradientUnits="userSpaceOnUse">
<stop stop-color="#28282C"/>
<stop offset="1"/>
</linearGradient>
<linearGradient id="paint4_linear_6393_19406" x1="122.901" y1="0" x2="122.901" y2="40" gradientUnits="userSpaceOnUse">
<stop stop-color="#28282C"/>
<stop offset="1"/>
</linearGradient>
<linearGradient id="paint5_linear_6393_19406" x1="122.901" y1="0" x2="122.901" y2="40" gradientUnits="userSpaceOnUse">
<stop stop-color="#28282C"/>
<stop offset="1"/>
</linearGradient>
<linearGradient id="paint6_linear_6393_19406" x1="122.901" y1="0" x2="122.901" y2="40" gradientUnits="userSpaceOnUse">
<stop stop-color="#28282C"/>
<stop offset="1"/>
</linearGradient>
</defs>
</svg>
